<?xml version="1.0" encoding="utf-8"?>
<svg xmlns="http://www.w3.org/2000/svg" width="205" height="60" fill="none" viewBox="0 0 205 60">
  <path fill="url(#a)" d="M10.734 18.763h-.033l-.045 3.673h.031c2.44 0 4.332 1.906 8.444 8.773l.25.418.017.027L21.7 28.23l-.016-.026a68.442 68.442 0 0 0-1.561-2.411 39.391 39.391 0 0 0-1.67-2.288c-2.72-3.433-4.996-4.742-7.719-4.742Z"/>
  <path fill="url(#b)" d="M10.698 18.763c-2.736.014-5.155 1.767-6.901 4.45l-.016.024 3.206 1.73.016-.023c1.02-1.522 2.289-2.493 3.65-2.508h.03l.048-3.673h-.033Z"/>
  <path fill="url(#c)" d="m3.8 23.219-.016.023c-1.148 1.771-2.003 3.944-2.466 6.288a8.28 8.28 0 0 0-.006.031l3.602.842.006-.03c.385-2.06 1.118-3.971 2.07-5.401l.016-.024-3.207-1.73Z"/>
  <path fill="url(#d)" d="m4.916 30.366-3.601-.842-.006.03c-.252 1.29-.38 2.6-.383 3.913v.032l3.694.328-.001-.032a17.48 17.48 0 0 1 .298-3.428Z"/>
  <path fill="url(#e)" d="M4.732 34.966a7.585 7.585 0 0 1-.112-1.143l-.001-.032-3.693-.327v.034c-.004.768.064 1.534.202 2.29l.006.03 3.604-.822-.006-.03Z"/>
  <path fill="url(#f)" d="M5.57 36.868c-.402-.434-.686-1.062-.836-1.864a6.555 6.555 0 0 1-.005-.03l-3.604.821.006.03c.272 1.418.806 2.6 1.571 3.493l.02.024 2.87-2.45-.022-.024Z"/>
  <path fill="#0082FB" d="M16.251 26.705a456.816 456.816 0 0 0-3.487 5.373C9.871 36.572 8.871 37.58 7.26 37.58c-.672 0-1.233-.237-1.664-.69l-.021-.024-2.868 2.45.02.024c1.057 1.22 2.548 1.897 4.392 1.897 2.791 0 4.798-1.304 8.366-7.486l2.51-4.396a57.824 57.824 0 0 0-1.744-2.65Z"/>
  <path fill="url(#g)" d="m20.125 21.492-.022.023a22.07 22.07 0 0 0-1.65 1.988c.537.678 1.092 1.44 1.671 2.29.682-1.044 1.32-1.89 1.943-2.538l.023-.022-1.965-1.741Z"/>
  <path fill="#0082FB" d="M30.663 21.17c-1.515-1.517-3.32-2.407-5.251-2.407-2.036 0-3.748 1.105-5.292 2.73a2.432 2.432 0 0 0-.022.023l1.964 1.74.022-.022c1.017-1.05 2.002-1.573 3.093-1.573 1.175 0 2.275.548 3.228 1.51l.022.022 2.258-2.001-.022-.023Z"/>
  <path fill="url(#h)" d="M35.031 32.98c-.085-4.868-1.804-9.222-4.356-11.792l-.022-.023-2.258 2.001.022.023c1.92 1.954 3.236 5.59 3.356 9.79v.033h3.259v-.031Z"/>
  <path fill="url(#i)" d="m35.04 33.013-.001-.032H31.78v.031c.006.197.009.396.008.595 0 1.146-.172 2.072-.523 2.74l-.016.03 2.43 2.504.017-.027c.882-1.349 1.345-3.222 1.345-5.495l-.003-.346Z"/>
  <path fill="url(#j)" d="m31.265 36.344-.015.03c-.304.563-.738.939-1.305 1.103l1.108 3.46a5.005 5.005 0 0 0 .622-.258 5.042 5.042 0 0 0 1.942-1.71l.062-.092.018-.027-2.432-2.506Z"/>
  <path fill="url(#k)" d="M29.235 37.579a2.44 2.44 0 0 1-1.02-.197l-1.133 3.542c.637.215 1.317.313 2.075.313a5.881 5.881 0 0 0 1.921-.304l-1.107-3.458a2.504 2.504 0 0 1-.736.104Z"/>
  <path fill="url(#l)" d="M26.982 36.368a5.185 5.185 0 0 1-.021-.024l-2.61 2.69.022.022c.907.958 1.773 1.552 2.754 1.878l1.133-3.539c-.413-.176-.814-.495-1.278-1.027Z"/>
  <path fill="url(#m)" d="M26.951 36.338c-.782-.902-1.75-2.404-3.273-4.833l-1.985-3.28-.015-.027-2.303 3.423.016.028 1.407 2.344c1.363 2.261 2.473 3.896 3.545 5.035l.021.023 2.608-2.689-.02-.024Z"/>
  <path fill="#1C2B33" d="M42.291 17.569h4.227l7.186 13 7.187-13h4.135V38.93h-3.448V22.558l-6.302 11.337h-3.235L45.74 22.558v16.373h-3.448V17.569ZM76.16 39.302c-1.597 0-3-.353-4.211-1.06a7.42 7.42 0 0 1-2.83-2.938c-.677-1.25-1.016-2.685-1.016-4.303 0-1.637.331-3.087.992-4.348.662-1.261 1.58-2.248 2.755-2.96 1.175-.712 2.525-1.068 4.05-1.069 1.516 0 2.82.36 3.915 1.076 1.093.717 1.935 1.722 2.525 3.014.59 1.292.885 2.807.885 4.547v.946H71.522c.213 1.302.74 2.327 1.579 3.075.839.747 1.9 1.121 3.181 1.121 1.028 0 1.913-.152 2.655-.458.743-.305 1.44-.768 2.09-1.388L82.86 36.8c-1.821 1.668-4.054 2.502-6.699 2.502Zm2.518-12.672c-.722-.738-1.668-1.106-2.838-1.106-1.14 0-2.094.376-2.861 1.129-.769.753-1.254 1.765-1.457 3.036h8.392c-.102-1.302-.514-2.322-1.236-3.06Zm8.709-.795h-3.174v-2.823h3.174v-4.67h3.326v4.67h4.822v2.823h-4.822v7.156c0 1.19.204 2.04.61 2.548.407.509 1.104.763 2.09.763.373.004.745-.014 1.115-.053.305-.036.64-.084 1.007-.145v2.792a10.035 10.035 0 0 1-2.762.382c-3.591 0-5.386-1.964-5.386-5.89v-7.553Zm25.495 13.085h-3.266v-2.227a5.902 5.902 0 0 1-2.212 1.93c-.895.453-1.913.679-3.052.68-1.404 0-2.647-.36-3.73-1.076-1.084-.718-1.936-1.704-2.556-2.96-.62-1.257-.931-2.694-.931-4.311 0-1.628.315-3.067.946-4.319.63-1.25 1.503-2.232 2.617-2.944 1.114-.712 2.393-1.068 3.837-1.069 1.089 0 2.065.212 2.93.634a5.785 5.785 0 0 1 2.151 1.793v-2.045h3.266v15.915Zm-3.327-10.345c-.356-.905-.918-1.62-1.686-2.143-.768-.524-1.655-.786-2.662-.786-1.425 0-2.559.478-3.403 1.434-.844.956-1.267 2.248-1.266 3.876 0 1.638.406 2.935 1.22 3.89.814.957 1.918 1.435 3.311 1.435 1.028 0 1.943-.264 2.747-.793a4.484 4.484 0 0 0 1.739-2.137v-4.776Zm30.806-6.045c.921 1.664 1.381 3.569 1.381 5.715 0 2.004-.432 3.81-1.297 5.417-.865 1.607-2.019 2.89-3.464 3.845 1.414 1.78 2.6 3.55 3.556 5.31H136.6a34.315 34.315 0 0 0-2.456-3.967c-1.031.305-2.1.46-3.174.458-1.567 0-3.006-.273-4.318-.817a10.137 10.137 0 0 1-3.419-2.304 10.408 10.408 0 0 1-2.242-3.51c-.53-1.347-.794-2.825-.794-4.432 0-1.607.265-3.085.794-4.433a10.409 10.409 0 0 1 2.242-3.509 10.137 10.137 0 0 1 3.419-2.304c1.312-.544 2.751-.816 4.318-.816 2.095 0 3.954.475 5.576 1.426a10.165 10.165 0 0 1 3.815 3.922Zm-15.602 9.782c.611 1.175 1.453 2.093 2.526 2.754 1.073.661 2.301.992 3.685.992 1.393 0 2.624-.331 3.692-.992s1.908-1.58 2.518-2.754c.61-1.175.915-2.53.915-4.067 0-1.536-.305-2.891-.915-4.066-.611-1.175-1.45-2.093-2.518-2.755-1.068-.66-2.299-.991-3.692-.991-1.384 0-2.612.33-3.685.991-1.074.662-1.916 1.58-2.526 2.755-.61 1.175-.915 2.53-.915 4.066s.305 2.892.915 4.067Zm34.012 6.621h-3.28v-2.29c-1.221 1.781-2.91 2.671-5.066 2.671-1.872 0-3.308-.59-4.311-1.77-1.002-1.18-1.503-2.869-1.503-5.066v-9.46h3.327v9.063c0 1.476.259 2.567.778 3.273.519.708 1.333 1.061 2.441 1.06.956 0 1.806-.25 2.549-.754.742-.504 1.322-1.208 1.739-2.114V23.018h3.326v15.915Zm10.959.369c-1.597 0-3-.353-4.211-1.06a7.417 7.417 0 0 1-2.83-2.938c-.677-1.25-1.015-2.685-1.015-4.303 0-1.637.33-3.087.992-4.348.661-1.261 1.579-2.248 2.754-2.96 1.175-.712 2.525-1.068 4.051-1.069 1.515 0 2.82.36 3.914 1.076 1.093.717 1.935 1.722 2.525 3.014.59 1.292.885 2.807.885 4.547v.946h-11.703c.214 1.302.74 2.327 1.579 3.075.839.747 1.9 1.121 3.181 1.121 1.028 0 1.913-.152 2.656-.458.742-.305 1.439-.768 2.09-1.388l1.831 2.243c-1.821 1.668-4.054 2.502-6.699 2.502Zm2.518-12.672c-.722-.738-1.668-1.106-2.838-1.106-1.139 0-2.093.376-2.861 1.129-.768.753-1.254 1.765-1.457 3.036h8.392c-.102-1.302-.514-2.322-1.236-3.06Zm18.19 11.322c-1.18.9-2.762 1.35-4.745 1.35-1.678 0-3.141-.295-4.387-.885-1.246-.59-2.174-1.383-2.785-2.38l2.243-1.953c.468.712 1.114 1.276 1.938 1.693.824.418 1.806.626 2.945.626 2.126 0 3.189-.62 3.189-1.861 0-.53-.175-.954-.526-1.275-.351-.32-.928-.546-1.732-.678l-3.067-.535c-1.445-.254-2.548-.768-3.311-1.54-.763-.774-1.144-1.77-1.144-2.991 0-1.475.587-2.66 1.762-3.556 1.175-.895 2.764-1.342 4.768-1.342 1.455 0 2.76.297 3.914.892 1.154.595 2.011 1.366 2.571 2.312l-2.304 1.74c-.387-.631-.961-1.13-1.724-1.496-.763-.366-1.648-.55-2.655-.55-.946 0-1.676.163-2.19.489-.514.326-.77.778-.77 1.358 0 .498.157.885.473 1.16.315.274.844.478 1.587.61l3.448.61c1.383.244 2.441.766 3.174 1.564.732.799 1.098 1.803 1.099 3.014 0 1.516-.591 2.724-1.771 3.624Zm6.222-12.117h-3.174v-2.823h3.174v-4.67h3.327v4.67h4.822v2.823h-4.822v7.156c0 1.19.203 2.04.61 2.548.407.509 1.104.763 2.091.763.372.004.743-.014 1.113-.053.305-.036.641-.084 1.008-.145v2.792a10.02 10.02 0 0 1-2.762.382c-3.591 0-5.387-1.964-5.387-5.89v-7.553Z"/>
  <defs>
    <linearGradient id="a" x1="20.17" x2="12.612" y1="30.262" y2="20.27" gradientUnits="userSpaceOnUse">
      <stop offset=".001" stop-color="#0867DF"/>
      <stop offset=".454" stop-color="#0668E1"/>
      <stop offset=".859" stop-color="#0064E0"/>
    </linearGradient>
    <linearGradient id="b" x1="5.287" x2="10.493" y1="23.831" y2="19.844" gradientUnits="userSpaceOnUse">
      <stop offset=".132" stop-color="#0064DF"/>
      <stop offset=".999" stop-color="#0064E0"/>
    </linearGradient>
    <linearGradient id="c" x1="3.069" x2="5.139" y1="29.622" y2="24.365" gradientUnits="userSpaceOnUse">
      <stop offset=".015" stop-color="#0072EC"/>
      <stop offset=".688" stop-color="#0064DF"/>
    </linearGradient>
    <linearGradient id="d" x1="2.78" x2="3.019" y1="33.404" y2="30.201" gradientUnits="userSpaceOnUse">
      <stop offset=".073" stop-color="#007CF6"/>
      <stop offset=".994" stop-color="#0072EC"/>
    </linearGradient>
    <linearGradient id="e" x1="2.914" x2="2.743" y1="35.141" y2="33.857" gradientUnits="userSpaceOnUse">
      <stop offset=".073" stop-color="#007FF9"/>
      <stop offset="1" stop-color="#007CF6"/>
    </linearGradient>
    <linearGradient id="f" x1="2.808" x2="3.877" y1="35.486" y2="37.772" gradientUnits="userSpaceOnUse">
      <stop offset=".073" stop-color="#007FF9"/>
      <stop offset="1" stop-color="#0082FB"/>
    </linearGradient>
    <linearGradient id="g" x1="19.48" x2="20.896" y1="24.453" y2="22.477" gradientUnits="userSpaceOnUse">
      <stop offset=".28" stop-color="#007FF8"/>
      <stop offset=".914" stop-color="#0082FB"/>
    </linearGradient>
    <linearGradient id="h" x1="30.362" x2="33.311" y1="21.904" y2="32.85" gradientUnits="userSpaceOnUse">
      <stop stop-color="#0082FB"/>
      <stop offset="1" stop-color="#0081FA"/>
    </linearGradient>
    <linearGradient id="i" x1="34.092" x2="32.221" y1="33.255" y2="37.07" gradientUnits="userSpaceOnUse">
      <stop offset=".062" stop-color="#0081FA"/>
      <stop offset="1" stop-color="#0080F9"/>
    </linearGradient>
    <linearGradient id="j" x1="30.685" x2="32.449" y1="39.068" y2="37.856" gradientUnits="userSpaceOnUse">
      <stop stop-color="#027AF3"/>
      <stop offset="1" stop-color="#0080F9"/>
    </linearGradient>
    <linearGradient id="k" x1="27.898" x2="30.363" y1="39.309" y2="39.309" gradientUnits="userSpaceOnUse">
      <stop stop-color="#0377EF"/>
      <stop offset=".999" stop-color="#0279F1"/>
    </linearGradient>
    <linearGradient id="l" x1="25.77" x2="27.535" y1="37.964" y2="39.011" gradientUnits="userSpaceOnUse">
      <stop offset=".002" stop-color="#0471E9"/>
      <stop offset="1" stop-color="#0377EF"/>
    </linearGradient>
    <linearGradient id="m" x1="20.356" x2="25.971" y1="30.338" y2="37.461" gradientUnits="userSpaceOnUse">
      <stop offset=".277" stop-color="#0867DF"/>
      <stop offset="1" stop-color="#0471E9"/>
    </linearGradient>
  </defs>
</svg>
