<?xml version="1.0" encoding="utf-8"?><svg width="265" height="54" viewBox="0 0 265 54" fill="black" xmlns="http://www.w3.org/2000/svg">
<g clip-path="url(#clip0_9646_18717)">
<path fill-rule="evenodd" clip-rule="evenodd" d="M132.982 0H132.164V53.3455H132.982V0ZM18.5857 44.1016C18.5857 44.1016 19.0839 44.2869 19.0839 44.8341C19.0839 45.3814 19.0797 45.2382 19.0797 45.2382C19.0754 45.2382 19.0925 47.1537 19.1095 48.9849L19.1137 49.4712C19.1249 50.7516 19.135 51.9019 19.135 52.2011C19.135 52.9589 19.5736 52.8536 20.0122 52.6347C20.306 52.4874 20.7786 52.1927 21.2682 51.8854C21.5067 51.7338 21.7537 51.5824 21.9878 51.4392C22.7032 51.0056 22.9203 50.2984 22.9203 49.6459L22.8096 46.9811C22.8649 46.4928 23.3035 46.2192 23.9082 46.6023L34.5146 51.6034C35.6131 52.037 36.1624 51.8728 36.8224 51.275C37.031 51.0814 37.1971 50.7151 37.3546 50.3615C37.4142 50.2268 37.4739 50.0921 37.5377 49.9701C37.7591 49.5365 37.8656 48.7197 36.6052 48.1219L23.7974 42.1484C23.1928 41.8747 22.8607 41.4958 22.8607 40.8433V37.9639C22.8607 37.7998 22.8607 37.202 23.2439 36.8778C31.4872 30.6811 35.7196 25.5705 35.7196 19.8664C35.7196 16.8228 33.5225 12.5836 27.1484 12.5836C20.7743 12.5836 11.5943 16.3344 1.81385 22.4764C0.412995 23.3562 0.0553549 25.3558 0.0553549 26.3367C0.0553549 26.8418 0.042578 27.4018 0.0255464 27.9448L0.024139 28.0013C0.0118513 28.4948 0 28.9707 0 29.3803C0 30.2475 0.438563 30.0876 0.877128 29.654C1.31569 29.2204 3.68308 27.2207 4.67091 26.5556L4.68793 26.5471L4.6915 26.5447C9.06721 23.5876 20.8401 15.6314 27.9191 15.6314C30.8315 15.6314 32.9221 17.6436 32.9221 20.902C32.9221 26.5556 28.5237 30.2475 24.0189 33.7836C23.1843 34.4403 22.8649 33.9478 22.8649 33.2953V19.3275C22.8649 18.4014 22.1496 18.4014 21.3832 18.7845L19.514 19.98C19.0754 20.2536 19.02 20.5778 19.02 21.0661L19.0754 36.3895C19.0754 36.9873 19.0201 37.4209 18.4708 37.7492L13.7445 40.6834C13.0292 41.1212 12.9185 41.5 13.7445 41.8789L18.5815 44.1059L18.5857 44.1016ZM81.5432 25.3895C81.3388 25.7936 81.2238 26.1346 81.2238 26.3535C81.2238 26.5177 81.2749 26.6777 81.3558 26.7956C81.4367 26.9134 81.5474 26.9765 81.6709 26.9765C81.7688 26.9765 81.8838 26.9344 82.0243 26.846C82.1606 26.7576 82.3096 26.6314 82.4671 26.4714C82.7779 26.1515 83.1016 25.7178 83.3954 25.259C83.6891 24.8001 83.9531 24.316 84.1448 23.9034C84.2384 23.6972 84.3151 23.5119 84.3662 23.3562C84.4173 23.1962 84.4428 23.0784 84.4428 23.0026C84.4428 22.8889 84.4173 22.7963 84.3662 22.7331C84.3193 22.6742 84.2427 22.6321 84.1022 22.6321C84.0085 22.6321 83.8893 22.6658 83.7487 22.7416C83.6125 22.8173 83.4592 22.9268 83.3017 23.0657C82.9824 23.3393 82.646 23.7224 82.3351 24.135C82.0243 24.5475 81.7433 24.9896 81.5432 25.3895ZM95.5474 19.5549L95.5533 19.5408C96.0829 18.2656 97.0894 15.8419 98.4002 15.8419C99.3455 15.8419 99.6222 16.7428 99.9544 17.9762C99.9669 18.0284 99.981 18.0821 99.9956 18.1381L99.9959 18.1391L100.014 18.2092L100.027 18.2582L100.03 18.2723C100.371 19.5747 100.938 21.7397 102.228 21.7397C102.395 21.7397 102.608 21.6436 102.831 21.5433L102.862 21.5292L102.864 21.5287C103.221 21.3647 103.587 21.1968 103.786 21.3945C104.089 21.6934 103.297 22.7542 102.671 23.4825C102.045 24.2107 101.364 24.9054 100.372 24.9054C99.3795 24.9054 98.6514 24.5265 98.166 23.3436C98.0425 23.0363 97.9319 22.6616 97.8254 22.287L97.8243 22.2831C97.5905 21.4635 97.3606 20.6578 96.9568 20.6578C96.4943 20.6578 96.1883 21.3265 95.6849 22.4265L95.6794 22.4385C95.6425 22.5166 95.6057 22.5979 95.5678 22.6815C95.5444 22.733 95.5207 22.7854 95.4963 22.8384C94.8747 24.1813 93.6271 26.6692 92.3412 26.6692C91.4939 26.6692 91.3193 26.0125 91.3193 24.9264C91.3193 24.4928 91.0085 24.0634 90.506 24.9727C90.4613 25.0527 90.4177 25.1337 90.374 25.2148C90.3304 25.2958 90.2868 25.3768 90.2421 25.4568C89.4927 26.846 88.722 28.2732 87.2828 28.2732C85.8437 28.2732 85.3838 27.1407 85.1496 26.2987C85.0389 25.903 84.7621 25.5831 84.43 26.0925C84.0979 26.6018 82.4416 28.7446 81.6709 29.3971C80.9002 30.0496 80.2956 30.5464 79.3035 30.5464C78.3114 30.5464 77.843 29.8265 77.843 28.3447C77.843 25.4821 80.6916 20.4768 83.8041 20.4768C84.2427 20.4768 84.7664 20.3673 85.0559 20.0432C85.0644 20.0348 85.0718 20.0264 85.0792 20.018L85.0794 20.0179C85.0868 20.0094 85.0943 20.001 85.1028 19.9926C85.1073 19.987 85.1119 19.9817 85.1164 19.9765L85.1283 19.9632C85.1368 19.9537 85.1453 19.9442 85.1539 19.9337C85.4093 19.6348 85.6733 19.3317 86.1928 19.3317C87.1764 19.3317 87.3978 20.2242 87.517 20.9819L87.5348 21.1034L87.5348 21.1035L87.5349 21.1039C87.5517 21.2176 87.5695 21.3386 87.5851 21.4618L87.5854 21.4635C87.7471 22.6462 87.9559 24.1729 88.722 24.1729C89.3412 24.1729 89.5633 23.6383 89.8848 22.8646L89.8887 22.8552L89.9525 22.7037C90.2804 21.9081 91.562 19.1465 92.0389 18.2751C92.5158 17.4037 93.0735 17.1974 93.4781 17.1974C93.8825 17.1974 94.4744 17.5931 94.4744 18.1362C94.4744 18.6792 94.5425 19.9506 94.5425 19.9506C94.5425 20.6031 95.0663 20.6998 95.4963 19.6769L95.5432 19.559L95.5474 19.5549ZM32.309 39.4541C32.1004 39.9172 31.9811 40.3129 31.9811 40.5613C31.9811 40.8097 32.0407 40.9318 32.1174 41.0076C32.1897 41.0791 32.2962 41.1128 32.4324 41.1128C32.5048 41.1128 32.6113 41.0749 32.7476 40.9823C32.8796 40.8939 33.0286 40.7634 33.1861 40.5992C33.5054 40.2709 33.8504 39.8245 34.174 39.3446C34.4976 38.8647 34.7913 38.3554 35.0042 37.9049C35.1107 37.6818 35.1958 37.4714 35.2554 37.2903C35.315 37.1093 35.3449 36.9578 35.3449 36.8525C35.3449 36.6883 35.2938 36.5368 35.2129 36.4315C35.132 36.3263 35.0255 36.2632 34.8978 36.2632C34.8084 36.2632 34.6892 36.3053 34.5487 36.3895C34.4081 36.4779 34.2548 36.6042 34.0973 36.7641C33.7737 37.0841 33.4331 37.5261 33.118 38.006C32.8029 38.4859 32.5176 38.9952 32.3133 39.4541H32.309ZM50.3923 29.5781C49.843 29.5781 49.0681 30.7569 48.3741 32.1714C48.217 32.4899 48.0561 32.865 47.8878 33.2573L47.8589 33.3248L47.854 33.3363C47.2847 34.6593 46.6562 36.12 45.9854 36.12C45.3622 36.12 45.1991 34.1336 45.1178 33.144L45.1168 33.1312C45.104 32.9586 45.0912 32.8154 45.0785 32.7228C45.0061 32.1039 44.6527 31.5526 43.9203 31.5526C43.5328 31.5526 43.0432 32.003 42.8771 32.4702C42.7494 32.8281 42.6089 33.2659 42.4641 33.7332L42.4621 33.7395C41.8577 35.6498 41.0791 38.1112 39.9775 38.1112C39.3558 38.1112 38.5638 36.541 38.5638 35.5643C38.5638 33.5521 37.7634 33.2953 36.9416 33.2953C36.4221 33.2953 36.0943 33.6742 35.8005 34.0152C35.5663 34.2888 35.3534 34.533 35.0852 34.533C34.8297 34.533 34.6338 34.5035 34.4465 34.4741C34.2676 34.4446 34.093 34.4193 33.8801 34.4193C31.4063 34.4193 28.7537 38.6165 28.7537 41.4412C28.7537 43.3608 29.8479 43.668 30.6569 43.668C32.4231 43.668 33.7299 41.9689 34.6623 40.7567L34.6636 40.7549L34.6718 40.7443C35.1831 40.0801 35.5807 39.5636 35.8771 39.5636C36.1493 39.5636 36.2516 39.887 36.3791 40.2905L36.3795 40.2918L36.3813 40.2974C36.5983 40.983 36.8898 41.9042 38.1977 41.9042C39.5091 41.9042 40.514 40.4224 41.2378 39.311L41.2444 39.301L41.2444 39.3009L41.2445 39.3009C41.6756 38.6405 42.0185 38.1154 42.3066 38.1154C42.6102 38.1154 42.6716 38.4664 42.7472 38.8984L42.7494 38.9111L42.751 38.9206C42.8657 39.58 43.01 40.4097 44.0949 40.4097C45.1617 40.4097 45.8002 39.4662 46.7889 38.0053L46.7889 38.0052L46.854 37.9092C47.1946 37.4082 47.6886 37.2608 47.6886 38.0944L47.5012 52.7315C47.5012 53.022 47.6971 53.3504 47.9908 53.3504C48.0734 53.3504 48.2626 53.3463 48.4975 53.3412C48.6746 53.3374 48.8778 53.333 49.0809 53.3294C49.5535 53.3168 50.0261 53.3083 50.1709 53.3083C50.4647 53.3083 50.6478 53.0599 50.6137 52.7358C50.5754 52.4116 50.7585 34.5119 50.8692 30.5253V30.4664V30.399L50.8695 30.3898C50.8822 29.9928 50.8952 29.5866 50.4008 29.5866L50.3923 29.5781ZM62.6508 32.7018C62.6934 31.9988 62.736 31.2073 62.736 30.66L62.5146 14.1748C62.5146 9.90199 63.8133 7.06884 65.1077 5.22078C66.385 3.39797 69.3357 0.00488281 73.4361 0.00488281C76.5912 0.00488281 78.2348 2.5392 78.2348 5.33445C78.2348 8.41596 77.1746 10.8744 73.5468 14.2085C72.1247 15.5135 71.1283 16.326 70.4385 16.8859L70.4288 16.8938C69.3636 17.7589 69.042 18.0201 69.042 18.595C69.042 19.3557 69.8652 19.8855 70.4991 20.2936L70.5024 20.2957C70.6216 20.3715 70.7366 20.4472 70.8345 20.5146C70.8941 20.5567 70.9665 20.6073 71.0559 20.6662C71.9075 21.2513 74.0279 22.7121 75.1222 23.6677C76.3315 24.7159 76.6977 25.44 76.6977 26.4588C76.6977 28.0542 76.0547 29.0014 75.3819 29.9907C75.3501 30.0369 75.3193 30.082 75.2885 30.1272C75.2576 30.1725 75.2266 30.2179 75.1946 30.2644C74.8172 30.8262 74.1061 31.6637 73.2422 32.6811L73.2317 32.6934C71.4179 34.8277 68.9355 37.7492 67.4282 40.5908C66.913 41.4201 66.4957 41.4116 66.1466 40.9528L66.0838 40.872C66.0628 40.8449 66.0424 40.8184 66.0231 40.7929C65.4483 40.0477 64.9969 39.4625 64.8309 38.9237L64.8096 38.8521L64.8095 38.852C64.6264 38.2711 64.3412 37.3661 64.9032 36.499C65.3205 35.8591 67.5091 33.1353 69.2761 30.9421C70.0085 30.0328 70.6642 29.2119 71.0943 28.6731C72.3759 27.0565 72.3419 24.7623 71.3881 23.853C71.1506 23.6282 70.8374 23.3394 70.4916 23.0204L70.2214 22.771C69.225 21.8575 68.0626 20.7883 67.6155 20.2663C67.0663 19.6138 66.6618 18.2456 67.6155 17.151C70.6173 13.7075 73.8448 9.83034 73.8448 5.99108C73.8448 3.81887 72.41 2.33287 71.2774 2.33287C68.5353 2.33287 66.1466 7.40556 66.0401 12.0068L66.551 29.978V30.0875V30.0876C66.551 31.3546 66.551 31.9946 65.5632 33.1312C64.5924 34.2468 63.6174 34.6129 63.0681 34.6129C62.7786 34.6129 62.5912 34.3941 62.5912 34.032C62.5912 33.8007 62.6125 33.4098 62.6371 32.9587L62.6508 32.706V32.7018ZM57.3881 28.0879C58.7463 28.0879 59.6618 28.9215 59.6618 29.8645C59.6618 31.1695 58.3035 33.0848 55.7019 33.0848C53.7561 33.0848 53.4708 31.8514 53.4708 31.3084C53.4708 30.3317 54.8972 28.0837 57.3881 28.0837V28.0879ZM201.854 16.8388H197.856V36.8139H201.117V21.5074L207.078 32.1074H210.14L216.101 21.5074V36.8139H219.362V16.8388H215.449L208.654 28.9965L201.854 16.8388ZM232.255 25.3219C231.574 24.6315 230.676 24.2863 229.573 24.2863C228.496 24.2863 227.593 24.6399 226.869 25.343C226.141 26.046 225.681 26.9932 225.49 28.1803H233.426C233.328 26.9637 232.941 26.0081 232.255 25.3177V25.3219ZM229.875 37.1722C228.364 37.1722 227.035 36.8397 225.894 36.1788C224.749 35.5178 223.859 34.6001 223.216 33.434C222.577 32.2637 222.258 30.9208 222.258 29.4095C222.258 27.8772 222.569 26.5217 223.195 25.343C223.82 24.1643 224.689 23.2423 225.8 22.5729C226.912 21.9078 228.189 21.5752 229.632 21.5752C231.067 21.5752 232.298 21.912 233.333 22.5814C234.367 23.2507 235.164 24.1895 235.721 25.3976C236.279 26.6058 236.56 28.0246 236.56 29.6495V30.5335H225.49C225.69 31.7501 226.188 32.7099 226.984 33.4087C227.776 34.1076 228.781 34.457 229.994 34.457C230.965 34.457 231.804 34.3138 232.507 34.0276C233.209 33.7413 233.869 33.3077 234.482 32.7309L236.215 34.8274C234.491 36.3892 232.383 37.168 229.879 37.168L229.875 37.1722ZM237.516 24.5724H240.517H240.522V31.6363C240.522 35.3072 242.216 37.1426 245.614 37.1426C246.083 37.1426 246.555 37.1089 247.019 37.0415C247.428 36.9826 247.828 36.8984 248.224 36.7848V34.1748C247.875 34.2295 247.56 34.2757 247.271 34.3094C246.985 34.3431 246.632 34.36 246.219 34.36C245.286 34.3642 244.626 34.1243 244.243 33.6486C243.856 33.1729 243.664 32.3772 243.664 31.2658V24.5724H248.224V21.9329H243.664V17.5674H240.517V21.9329H237.516V24.5724ZM261.474 27.1401C261.138 26.294 260.605 25.6246 259.877 25.1363C259.149 24.648 258.31 24.3996 257.361 24.3996C256.015 24.3996 254.942 24.8459 254.142 25.7426C253.342 26.635 252.946 27.8432 252.946 29.3671C252.946 30.8994 253.329 32.1119 254.099 33.0043C254.87 33.8968 255.913 34.3472 257.229 34.3472C258.2 34.3472 259.068 34.0988 259.826 33.6063C260.584 33.1137 261.133 32.4444 261.47 31.6109V27.1443L261.474 27.1401ZM264.621 36.8141H264.616V21.937H261.529V23.8482C261.001 23.1325 260.299 22.56 259.494 22.1727C258.677 21.777 257.753 21.5791 256.722 21.5791C255.36 21.5791 254.146 21.9117 253.095 22.5769C252.043 23.242 251.217 24.1597 250.621 25.33C250.025 26.5003 249.727 27.8432 249.727 29.3671C249.727 30.8784 250.02 32.2213 250.608 33.3958C251.196 34.5745 252 35.4965 253.026 36.1658C254.053 36.8352 255.228 37.1719 256.556 37.1719C257.634 37.1719 258.596 36.9614 259.443 36.5362C260.286 36.111 260.984 35.509 261.534 34.7302V36.8141H264.616V36.8182L264.621 36.8141ZM178.599 24.9928L180.473 28.0869V28.0827C183.406 32.747 184.079 33.7574 185.689 33.7574C187.298 33.7574 188.077 32.3977 188.077 30.0487C188.077 23.8899 185.322 18.8761 181.878 18.8761C180.217 18.8761 178.825 20.16 177.135 22.7406C177.603 23.4267 178.093 24.1761 178.599 24.9928ZM165.076 33.7574C166.588 33.7574 167.524 32.8144 170.237 28.6131V28.6089C170.237 28.6089 171.472 26.6724 173.507 23.5867C171.361 20.5515 169.96 19.5959 168.287 19.5959C165.191 19.5959 162.598 24.858 162.598 30.0023C162.598 32.4103 163.565 33.7574 165.076 33.7574ZM175.568 20.5979C177.424 18.1184 179.472 16.165 182.095 16.165H182.091C187.043 16.165 191.122 22.3954 191.122 29.8171C191.122 34.3426 189.155 37.1799 185.612 37.1799C182.525 37.1799 180.826 35.4665 177.769 30.4106L176.202 27.8006C175.832 27.1818 175.478 26.6009 175.142 26.0663C174.18 27.746 172.787 30.1792 172.787 30.1792C169.44 35.9591 167.559 37.1799 164.944 37.1799C161.312 37.1799 159.141 34.3805 159.141 29.9476C159.141 22.8627 163.13 16.165 168.333 16.165C170.884 16.165 173.017 17.3859 175.568 20.5979Z" fill="#1C2B33" style="fill:#1C2B33;fill:color(display-p3 0.1098 0.1686 0.2000);fill-opacity:1;"/>
</g>
<defs>
<clipPath id="clip0_9646_18717">
<rect width="264.621" height="53.3507" fill="white" style="fill:white;fill-opacity:1;"/>
</clipPath>
</defs>
</svg>
